<?xml version="1.0" encoding="UTF-8"?>
<svg xmlns="http://www.w3.org/2000/svg" version="1.1" width="200" height="200" viewBox="0 0 200 200"><rect x="0" y="0" width="200" height="200" fill="#ffffff"/><g transform="scale(8)"><g transform="translate(0,0)"><path fill-rule="evenodd" d="M9 0L9 1L11 1L11 2L9 2L9 3L8 3L8 5L9 5L9 6L8 6L8 7L9 7L9 9L8 9L8 8L5 8L5 9L7 9L7 10L6 10L6 11L5 11L5 10L3 10L3 9L2 9L2 8L0 8L0 9L1 9L1 10L3 10L3 11L4 11L4 14L3 14L3 15L4 15L4 16L6 16L6 17L8 17L8 20L9 20L9 21L10 21L10 23L8 23L8 25L10 25L10 24L11 24L11 25L13 25L13 24L11 24L11 22L12 22L12 21L13 21L13 22L15 22L15 23L14 23L14 24L15 24L15 23L16 23L16 25L19 25L19 24L21 24L21 25L22 25L22 24L21 24L21 23L20 23L20 22L19 22L19 21L21 21L21 22L22 22L22 23L23 23L23 22L24 22L24 25L25 25L25 21L24 21L24 20L25 20L25 18L24 18L24 20L21 20L21 19L22 19L22 18L23 18L23 15L24 15L24 16L25 16L25 14L24 14L24 13L25 13L25 10L24 10L24 9L22 9L22 8L20 8L20 9L19 9L19 10L18 10L18 11L17 11L17 10L16 10L16 9L17 9L17 6L16 6L16 8L15 8L15 6L14 6L14 8L13 8L13 9L11 9L11 8L10 8L10 7L11 7L11 4L12 4L12 7L13 7L13 4L14 4L14 3L15 3L15 4L17 4L17 1L16 1L16 3L15 3L15 0L14 0L14 3L12 3L12 2L13 2L13 1L12 1L12 0ZM9 3L9 5L10 5L10 3ZM9 6L9 7L10 7L10 6ZM9 9L9 10L7 10L7 11L6 11L6 12L7 12L7 11L9 11L9 12L10 12L10 11L12 11L12 12L11 12L11 13L12 13L12 12L13 12L13 14L11 14L11 15L10 15L10 16L9 16L9 15L6 15L6 16L8 16L8 17L9 17L9 18L11 18L11 17L12 17L12 18L13 18L13 19L11 19L11 20L15 20L15 19L16 19L16 16L17 16L17 15L18 15L18 14L19 14L19 15L20 15L20 16L21 16L21 18L22 18L22 15L23 15L23 13L24 13L24 11L23 11L23 10L22 10L22 12L20 12L20 14L19 14L19 13L18 13L18 12L19 12L19 11L18 11L18 12L17 12L17 11L16 11L16 13L17 13L17 15L16 15L16 16L15 16L15 15L14 15L14 14L15 14L15 11L14 11L14 10L15 10L15 9L13 9L13 10L10 10L10 9ZM9 10L9 11L10 11L10 10ZM0 11L0 17L1 17L1 13L2 13L2 11ZM5 13L5 14L4 14L4 15L5 15L5 14L8 14L8 13ZM21 14L21 15L22 15L22 14ZM11 15L11 16L10 16L10 17L11 17L11 16L13 16L13 17L14 17L14 19L15 19L15 16L13 16L13 15ZM2 16L2 17L3 17L3 16ZM17 17L17 20L20 20L20 17ZM18 18L18 19L19 19L19 18ZM9 19L9 20L10 20L10 19ZM15 21L15 22L16 22L16 21ZM22 21L22 22L23 22L23 21ZM17 22L17 23L18 23L18 24L19 24L19 22ZM0 0L0 7L7 7L7 0ZM1 1L1 6L6 6L6 1ZM2 2L2 5L5 5L5 2ZM18 0L18 7L25 7L25 0ZM19 1L19 6L24 6L24 1ZM20 2L20 5L23 5L23 2ZM0 18L0 25L7 25L7 18ZM1 19L1 24L6 24L6 19ZM2 20L2 23L5 23L5 20Z" fill="#000000"/></g></g></svg>
